<?xml version="1.0" standalone="no"?>
<!DOCTYPE svg PUBLIC "-//W3C//DTD SVG 20010904//EN"
 "http://www.w3.org/TR/2001/REC-SVG-20010904/DTD/svg10.dtd">
<svg version="1.0" xmlns="http://www.w3.org/2000/svg"
 width="1280.000000pt" height="950.000000pt" viewBox="0 0 1280.000000 950.000000"
 preserveAspectRatio="xMidYMid meet">
<g transform="translate(0.000000,950.000000) scale(0.100000,-0.100000)"
fill="#06633d" stroke="none">
<path d="M6270 8814 c-310 -39 -571 -164 -786 -378 -185 -185 -304 -405 -360
-668 -18 -85 -27 -398 -12 -413 4 -4 50 -2 103 5 l95 13 0 132 c0 267 77 495
235 692 328 410 884 530 1355 293 104 -52 179 -108 271 -199 124 -125 210
-261 265 -425 59 -174 72 -396 33 -567 -37 -162 -44 -141 60 -177 49 -18 92
-32 95 -32 7 0 34 88 53 175 25 114 25 388 0 504 -60 276 -182 498 -379 687
-177 169 -403 288 -648 339 -74 16 -311 27 -380 19z"/>
<path d="M2625 7694 c-33 -8 -79 -21 -102 -30 -40 -14 -44 -20 -59 -72 -22
-74 -12 -109 62 -239 178 -307 264 -558 264 -772 0 -150 -7 -161 -205 -319
-218 -174 -381 -346 -488 -513 -100 -158 -230 -422 -262 -533 l-16 -55 -352 6
c-236 4 -378 2 -429 -6 -218 -31 -361 -155 -417 -361 -40 -150 -46 -235 -46
-695 0 -434 0 -441 24 -515 12 -41 30 -88 38 -104 33 -64 144 -140 236 -161
96 -22 328 -36 543 -33 213 3 224 1 224 -58 0 -84 82 -376 156 -559 149 -365
416 -676 799 -930 126 -84 219 -135 245 -135 33 0 32 -18 -3 -82 -19 -35 -56
-117 -82 -182 -44 -109 -47 -124 -41 -178 7 -72 45 -148 90 -184 134 -107
1148 -419 1524 -469 97 -13 111 -13 154 2 27 9 73 36 103 60 44 35 62 58 94
125 36 76 72 182 101 296 9 35 15 42 28 37 41 -16 527 -54 977 -76 411 -20
976 -13 1073 13 9 2 21 -27 38 -92 44 -168 126 -277 256 -339 107 -51 195 -43
624 54 386 88 775 196 859 238 70 35 124 77 141 109 48 93 36 305 -28 488 -55
160 -55 160 12 180 204 61 494 264 745 522 144 147 255 287 334 421 247 422
351 833 354 1412 1 306 -21 475 -98 728 -24 81 -29 111 -21 121 20 26 415 226
446 226 6 0 28 -11 50 -25 175 -111 497 -127 765 -39 148 49 282 129 359 214
l38 42 -28 32 c-16 17 -49 52 -73 78 l-44 47 -64 -58 c-130 -120 -295 -180
-513 -188 -132 -5 -220 6 -220 27 0 5 33 32 73 59 89 62 112 83 160 145 46 61
67 129 67 222 0 191 -132 389 -320 478 -89 42 -216 49 -302 16 -117 -44 -203
-133 -245 -254 -24 -69 -24 -226 1 -324 10 -41 43 -122 72 -180 30 -59 54
-111 54 -117 0 -5 -84 -51 -185 -102 -184 -91 -186 -91 -199 -70 -7 12 -37 67
-65 122 -220 421 -607 827 -1085 1140 -290 190 -723 414 -994 515 -329 122
-787 232 -1197 286 -720 94 -1562 94 -2155 -2 -85 -13 -171 -27 -190 -30 -43
-6 -93 24 -285 175 -228 179 -385 274 -579 351 -103 40 -281 86 -387 100 -116
14 -332 11 -404 -6z m444 -220 c118 -21 304 -84 411 -139 119 -62 223 -133
405 -274 83 -65 179 -135 215 -156 98 -57 157 -58 426 -10 333 59 982 81 1502
50 842 -51 1542 -214 2072 -483 664 -337 1044 -623 1366 -1028 238 -299 408
-667 480 -1039 26 -130 28 -159 28 -410 1 -378 -35 -629 -129 -905 -182 -531
-504 -901 -1104 -1265 -155 -94 -167 -104 -208 -164 -30 -45 -43 -75 -43 -99
0 -19 21 -94 46 -166 42 -121 46 -139 47 -239 l2 -108 -90 -30 c-275 -90 -927
-248 -1148 -278 -76 -11 -80 -10 -123 15 -56 33 -85 81 -127 215 -40 124 -75
184 -122 206 -31 15 -54 15 -232 5 -242 -15 -468 -15 -809 -2 -285 11 -820 45
-954 60 -243 28 -369 -17 -399 -142 -25 -99 -95 -301 -115 -331 -21 -31 -25
-32 -80 -29 -123 5 -520 104 -886 219 -290 91 -557 191 -571 215 -9 14 16 84
89 248 80 181 81 188 42 245 -51 75 -89 106 -245 205 -185 117 -302 208 -429
330 -267 258 -400 507 -515 967 -64 260 -67 265 -133 299 -29 15 -66 31 -83
36 -16 5 -169 13 -340 18 -170 5 -337 14 -370 20 -84 16 -120 48 -141 125 -32
123 -28 807 7 1001 19 106 39 160 75 202 76 90 166 104 624 100 245 -2 339 0
383 10 l59 14 65 136 c287 605 356 699 728 994 66 52 144 121 172 154 47 53
55 68 73 145 44 186 11 421 -95 691 -41 103 -145 306 -181 354 -13 17 -24 34
-24 38 0 12 285 -4 379 -20z m7612 -1604 c79 -41 158 -146 174 -233 13 -70 -2
-125 -49 -171 -50 -50 -201 -146 -231 -146 -53 0 -155 244 -155 372 0 152 133
243 261 178z"/>
<path d="M3106 5384 c-95 -30 -169 -95 -210 -183 -30 -65 -29 -197 1 -263 30
-66 96 -133 162 -165 47 -24 69 -28 136 -28 136 0 238 63 297 182 61 125 37
274 -62 373 -82 82 -219 118 -324 84z"/>
</g>
</svg>
